<?xml version="1.0" encoding="UTF-8"?>
<svg width="14px" height="14px" viewBox="0 0 14 14" version="1.1" xmlns="http://www.w3.org/2000/svg" xmlns:xlink="http://www.w3.org/1999/xlink">
    <!-- Generator: Sketch 60 (88103) - https://sketch.com -->
    <title>icn</title>
    <desc>Created with Sketch.</desc>
    <g id="页面-1" stroke="none" stroke-width="1" fill="none" fill-rule="evenodd">
        <g id="生产查询-内容详情" transform="translate(-48.000000, -116.000000)">
            <g id="编组-5" transform="translate(48.000000, 112.000000)">
                <g id="icn" transform="translate(0.000000, 4.000000)">
                    <rect id="Rectangle-17" x="0" y="0" width="14" height="14"></rect>
                    <g id="error" transform="translate(0.218750, 0.861328)" fill="#000000" fill-opacity="0.65" fill-rule="nonzero">
                        <path d="M13.3710937,10.0652344 L8.06503906,0.758789063 L8.06503906,0.758789063 C7.93378906,0.529101563 7.74375,0.3390625 7.5140625,0.2078125 C7.17089844,0.0123046875 6.77304687,-0.03828125 6.39296875,0.0669921875 C6.01289062,0.170898438 5.69570312,0.416992188 5.50019531,0.76015625 L0.194140625,10.0652344 C0.0669921875,10.2867188 0,10.5396484 0,10.7953125 C0,11.6101563 0.66171875,12.271875 1.4765625,12.271875 L12.0873047,12.271875 C12.3429688,12.271875 12.5958984,12.2048828 12.81875,12.0777344 C13.1619141,11.8822266 13.4080078,11.5650391 13.5119141,11.1849609 C13.6158203,10.8048828 13.5652344,10.4070313 13.3710937,10.0652344 Z M12.5630859,10.9265625 C12.5289063,11.0537109 12.446875,11.1589844 12.3320313,11.2246094 C12.2582031,11.2669922 12.1734375,11.2888672 12.0886719,11.2888672 L1.4765625,11.2888672 C1.20449219,11.2888672 0.984375,11.06875 0.984375,10.7966797 C0.984375,10.7119141 1.00625,10.6271484 1.04863281,10.5533203 L6.3546875,1.24824219 C6.4203125,1.13339844 6.52558594,1.05136719 6.65273438,1.0171875 C6.69648438,1.00488281 6.74023438,0.999414063 6.78398438,0.999414063 C6.86875,0.999414063 6.95214844,1.02128906 7.02734375,1.06367187 C7.10390625,1.10742187 7.16679688,1.1703125 7.21054688,1.246875 L7.21054688,1.246875 L12.5166016,10.5519531 C12.5808594,10.6667969 12.5972656,10.7994141 12.5630859,10.9265625 Z" id="Shape"></path>
                        <path d="M6.78125,9.0234375 C6.47910156,9.0234375 6.234375,9.26816406 6.234375,9.5703125 L6.234375,9.734375 C6.234375,10.0365234 6.47910156,10.28125 6.78125,10.28125 C7.08339844,10.28125 7.328125,10.0365234 7.328125,9.734375 L7.328125,9.5703125 C7.328125,9.26816406 7.08339844,9.0234375 6.78125,9.0234375 Z" id="Shape"></path>
                        <path d="M6.78125,3.390625 C6.47910156,3.390625 6.234375,3.63535156 6.234375,3.9375 L6.234375,7.6015625 C6.234375,7.90371094 6.47910156,8.1484375 6.78125,8.1484375 C7.08339844,8.1484375 7.328125,7.90371094 7.328125,7.6015625 L7.328125,3.9375 C7.328125,3.63535156 7.08339844,3.390625 6.78125,3.390625 Z" id="Shape"></path>
                    </g>
                </g>
            </g>
        </g>
    </g>
</svg>