<?xml version="1.0" encoding="UTF-8"?>
<svg width="14px" height="14px" viewBox="0 0 14 14" version="1.1" xmlns="http://www.w3.org/2000/svg" xmlns:xlink="http://www.w3.org/1999/xlink">
    <!-- Generator: Sketch 60 (88103) - https://sketch.com -->
    <title>Group 165</title>
    <desc>Created with Sketch.</desc>
    <g id="页面-1" stroke="none" stroke-width="1" fill="none" fill-rule="evenodd" opacity="0.65">
        <g id="生产查询-内容详情" transform="translate(-48.000000, -170.000000)">
            <g id="编组-5" transform="translate(48.000000, 112.000000)">
                <g id="Group-165" transform="translate(0.000000, 58.000000)">
                    <g id="code-square-o" transform="translate(0.861328, 0.861328)" fill="#000000" fill-rule="nonzero">
                        <path d="M11.2861328,0.0068359375 L0.991210937,0.0068359375 C0.447070313,0.0068359375 0.0068359375,0.447070313 0.0068359375,0.991210937 L0.0068359375,11.2875 C0.0068359375,11.8316406 0.447070313,12.271875 0.991210937,12.271875 L11.2875,12.271875 C11.8316406,12.271875 12.271875,11.8316406 12.271875,11.2875 L12.271875,0.991210937 C12.2705078,0.447070313 11.8289062,0.0068359375 11.2861328,0.0068359375 Z M11.2861328,11.2875 L0.991210938,11.2875 L0.991210938,0.991210938 L11.2861328,0.991210938 L11.2861328,11.2875 Z M1.91679688,6.496875 C2.0125,6.59257813 2.13828125,6.64042969 2.2640625,6.64042969 C2.38984375,6.64042969 2.51699219,6.59257813 2.61269531,6.49550781 L4.53222656,4.56914063 C4.72363281,4.37773438 4.72363281,4.06875 4.53359375,3.87597656 L2.6140625,1.93183594 C2.42265625,1.7390625 2.1109375,1.73632812 1.91816406,1.92773437 C1.72539063,2.11914062 1.72265625,2.43085937 1.9140625,2.62363281 L3.49042969,4.22050781 L1.91542969,5.80097656 C1.72402344,5.99375 1.72402344,6.30410156 1.91679688,6.496875 Z M4.36953125,6.14277344 C4.36953125,6.41484375 4.58964844,6.63496094 4.86035156,6.63632813 L7.5796875,6.64042969 C7.5796875,6.64042969 7.5796875,6.64042969 7.58105469,6.64042969 C7.853125,6.64042969 8.07324219,6.4203125 8.07324219,6.14960937 C8.07324219,5.87753906 7.853125,5.65742187 7.58242188,5.65605469 L4.86308594,5.65195312 C4.86308594,5.65195312 4.86308594,5.65195312 4.86171875,5.65195312 C4.59101563,5.65195312 4.37089844,5.87207031 4.36953125,6.14277344 Z" id="Shape"></path>
                    </g>
                    <rect id="Rectangle-47-Copy" x="0" y="0" width="14" height="14"></rect>
                </g>
            </g>
        </g>
    </g>
</svg>