<?xml version="1.0" encoding="UTF-8"?>
<svg width="14px" height="14px" viewBox="0 0 14 14" version="1.1" xmlns="http://www.w3.org/2000/svg" xmlns:xlink="http://www.w3.org/1999/xlink">
    <!-- Generator: Sketch 60 (88103) - https://sketch.com -->
    <title>icn</title>
    <desc>Created with Sketch.</desc>
    <g id="页面-1" stroke="none" stroke-width="1" fill="none" fill-rule="evenodd">
        <g id="生产查询-内容详情" transform="translate(-48.000000, -224.000000)">
            <g id="编组-5" transform="translate(48.000000, 112.000000)">
                <g id="icn" transform="translate(0.000000, 112.000000)">
                    <rect id="Rectangle-7" x="0" y="0" width="14" height="14"></rect>
                    <path d="M11.7578125,6.890625 C11.4857422,6.890625 11.265625,7.11074219 11.265625,7.3828125 C11.265625,7.40195312 11.2669922,7.41972656 11.2683594,7.4375 L11.265625,7.4375 L11.265625,12.140625 L1.859375,12.140625 L1.859375,2.734375 L7,2.734375 C7.27207031,2.734375 7.4921875,2.51425781 7.4921875,2.2421875 C7.4921875,1.97011719 7.27207031,1.75 7,1.75 L1.859375,1.75 C1.31523437,1.75 0.875,2.19023437 0.875,2.734375 L0.875,12.140625 C0.875,12.6847656 1.31523437,13.125 1.859375,13.125 L11.265625,13.125 C11.8097656,13.125 12.25,12.6847656 12.25,12.140625 L12.25,7.4375 L12.2472656,7.4375 C12.2486328,7.41972656 12.25,7.40195312 12.25,7.3828125 C12.25,7.11074219 12.0298828,6.890625 11.7578125,6.890625 Z" id="Shape" fill-opacity="0.65" fill="#000000" fill-rule="nonzero"></path>
                    <path d="M13.7087891,1.37128906 L12.6246094,0.287109375 C12.2404297,-0.0970703125 11.6142578,-0.0943359375 11.2300781,0.28984375 L5.79960937,5.7203125 C5.75996094,5.75996094 5.72851562,5.8078125 5.70664062,5.85976562 L4.3421875,9.078125 C4.265625,9.25859375 4.31894531,9.44042969 4.43515625,9.55800781 C4.55136719,9.67558594 4.73457031,9.72890625 4.91640625,9.65234375 L8.13613281,8.28925781 C8.18808594,8.26738281 8.23457031,8.2359375 8.27558594,8.19628906 L13.7060547,2.76582031 C14.0902344,2.38164063 14.0929687,1.75546875 13.7087891,1.37128906 Z M7.65351562,7.42382813 L5.775,8.21953125 L6.57070312,6.34101563 L10.3824219,2.52929688 L11.4652344,3.61210937 L7.65351562,7.42382813 Z M13.0087891,2.06855469 L12.1611328,2.91621094 L11.0783203,1.83339844 L11.9259766,0.985742188 L11.9287109,0.983007813 L13.0115234,2.06582031 L13.0087891,2.06855469 Z" id="Shape" fill-opacity="0.65" fill="#000000" fill-rule="nonzero"></path>
                </g>
            </g>
        </g>
    </g>
</svg>