<?xml version="1.0" encoding="UTF-8"?>
<svg width="14px" height="14px" viewBox="0 0 14 14" version="1.1" xmlns="http://www.w3.org/2000/svg" xmlns:xlink="http://www.w3.org/1999/xlink">
    <!-- Generator: Sketch 60 (88103) - https://sketch.com -->
    <title>Group 52</title>
    <desc>Created with Sketch.</desc>
    <g id="页面-1" stroke="none" stroke-width="1" fill="none" fill-rule="evenodd" opacity="0.65">
        <g id="生产查询-内容详情" transform="translate(-48.000000, -278.000000)">
            <g id="编组-5" transform="translate(48.000000, 112.000000)">
                <g id="Group-52" transform="translate(0.000000, 166.000000)">
                    <rect id="Rectangle-35-Copy-21" x="0" y="0" width="14" height="14"></rect>
                    <g id="linechart" transform="translate(0.861328, 0.875000)" fill="#000000" fill-rule="nonzero">
                        <path d="M11.7578125,12.2636719 L0.4921875,12.2636719 C0.220117187,12.2636719 0,12.0435547 0,11.7714844 L0,0.4921875 C0,0.220117187 0.220117187,0 0.4921875,0 C0.764257813,0 0.984375,0.220117187 0.984375,0.4921875 L0.984375,11.2792969 L11.7578125,11.2792969 C12.0298828,11.2792969 12.25,11.4994141 12.25,11.7714844 C12.25,12.0435547 12.0298828,12.2636719 11.7578125,12.2636719 Z M4.40234375,9.296875 C4.23828125,9.296875 4.08242188,9.21484375 3.99082031,9.07402344 L1.84433594,5.65605469 C1.6953125,5.42910156 1.75820313,5.12421875 1.98652344,4.97519531 C2.21347656,4.82617188 2.51835938,4.8890625 2.66738281,5.11738281 L4.20410156,7.60429688 L4.82753906,5.18164063 C4.86308594,5.0421875 4.96015625,4.92460938 5.09003906,4.86171875 L7.57832031,3.65859375 C7.80527344,3.54921875 8.07871094,3.62851563 8.21132812,3.84316406 L9.46230469,5.87070313 L11.2902344,0.351367188 C11.3763672,0.09296875 11.6539062,-0.046484375 11.9123047,0.03828125 C12.1707031,0.124414063 12.3101563,0.401953125 12.2253906,0.660351563 L10.0652344,7.18183594 C10.0050781,7.36367188 9.84511719,7.49355469 9.65507812,7.51542969 C9.46503906,7.53730469 9.27910156,7.44707031 9.17929687,7.284375 L7.60703125,4.73867188 L5.72441406,5.64921875 L4.87949219,8.92773438 C4.83027344,9.11640625 4.67578125,9.25859375 4.48300781,9.29003906 C4.45566406,9.29414063 4.42832031,9.296875 4.40234375,9.296875 Z" id="Shape"></path>
                    </g>
                </g>
            </g>
        </g>
    </g>
</svg>