<?xml version="1.0" encoding="UTF-8"?>
<svg width="109px" height="24px" viewBox="0 0 109 24" version="1.1" xmlns="http://www.w3.org/2000/svg" xmlns:xlink="http://www.w3.org/1999/xlink">
    <!-- Generator: Sketch 60 (88103) - https://sketch.com -->
    <title>logo</title>
    <desc>Created with Sketch.</desc>
    <g id="主页面" stroke="none" stroke-width="1" fill="none" fill-rule="evenodd">
        <g id="系统管理-系统配置" transform="translate(-25.000000, -20.000000)">
            <g id="header">
                <g id="logo" transform="translate(25.000000, 20.000000)">
                    <path d="M18.474,8.76296 C17.5804,9.65736 16.1308,9.65656 15.2364,8.76216 C14.6828,8.20776 14.4716,7.44136 14.6044,6.72696 C14.6108,6.70456 14.6148,6.68056 14.618,6.65576 C14.7244,6.08456 14.5556,5.47176 14.1132,5.02936 C13.686,4.60296 13.1004,4.43016 12.546,4.51256 C12.5388,4.51496 12.5308,4.51496 12.5244,4.51736 C12.4788,4.52376 12.4356,4.53256 12.3908,4.54376 C12.3892,4.54376 12.386,4.54456 12.382,4.54536 C12.118,4.59016 11.8492,4.58776 11.5868,4.54056 C11.562,4.53416 11.538,4.52936 11.5116,4.52456 C10.9396,4.41816 10.3276,4.58776 9.886,5.02936 C9.4436,5.47176 9.2748,6.08456 9.3812,6.65576 C9.3844,6.68216 9.39,6.70616 9.3948,6.73176 C9.526,7.44456 9.3164,8.21016 8.7628,8.76296 C7.8692,9.65736 6.4196,9.65656 5.5252,8.76216 C4.6316,7.86696 4.6316,6.41896 5.5252,5.52536 C6.0788,4.97096 6.846,4.76056 7.5604,4.89336 C7.5836,4.89976 7.6076,4.90216 7.6316,4.90616 C8.2036,5.01256 8.8156,4.84376 9.258,4.40136 C9.6996,3.95976 9.8684,3.34696 9.7628,2.77576 C9.7588,2.75176 9.7556,2.72856 9.7484,2.70536 C9.6164,1.99016 9.8268,1.22376 10.3812,0.67016 C11.2756,-0.22344 12.7236,-0.22344 13.6172,0.67016 C14.162,1.21496 14.3756,1.96536 14.2572,2.67096 C14.2564,2.67336 14.2548,2.67736 14.2548,2.67976 C14.2444,2.72456 14.2356,2.76776 14.2284,2.81336 C14.226,2.81976 14.226,2.82696 14.2244,2.83416 C14.1412,3.38936 14.314,3.97496 14.7412,4.40136 C15.1836,4.84376 15.7948,5.01256 16.3676,4.90616 C16.3908,4.90216 16.4156,4.89976 16.438,4.89336 C17.1532,4.76056 17.9196,4.97096 18.4732,5.52536 C19.3676,6.41896 19.3676,7.86856 18.474,8.76296" id="Fill-1" fill="#FCB811"></path>
                    <path d="M18.474,18.47424 C17.5804,19.36784 16.1308,19.36544 15.2364,18.47264 C14.6828,17.91904 14.4716,17.15344 14.6044,16.43824 C14.6108,16.41504 14.6148,16.39104 14.618,16.36704 C14.7244,15.79424 14.5548,15.18304 14.1132,14.74064 C13.686,14.31344 13.1004,14.14064 12.546,14.22384 C12.5388,14.22544 12.5308,14.22544 12.5244,14.22784 C12.4788,14.23504 12.4356,14.24384 12.3908,14.25504 C12.3892,14.25504 12.386,14.25664 12.382,14.25744 C12.118,14.30064 11.8492,14.29824 11.586,14.25104 C11.562,14.24544 11.538,14.23984 11.5116,14.23584 C10.9396,14.12944 10.3276,14.29824 9.886,14.74064 C9.4436,15.18304 9.2748,15.79424 9.3812,16.36704 C9.3844,16.39264 9.39,16.41744 9.3948,16.44144 C9.526,17.15584 9.3156,17.92144 8.7628,18.47344 C7.8692,19.36784 6.4196,19.36544 5.5252,18.47264 C4.9716,17.91904 4.7604,17.15344 4.8932,16.43824 C4.8996,16.41504 4.9036,16.39104 4.9068,16.36704 C5.0132,15.79424 4.8444,15.18304 4.402,14.74064 C3.9748,14.31344 3.3892,14.14064 2.834,14.22384 C2.8276,14.22464 2.8204,14.22464 2.8132,14.22784 C2.7676,14.23504 2.7244,14.24384 2.6804,14.25504 C2.6772,14.25504 2.674,14.25584 2.6708,14.25744 C1.9652,14.37584 1.2148,14.16064 0.6708,13.61664 C-0.2236,12.72304 -0.2236,11.27504 0.6708,10.38064 C1.5644,9.48704 3.0124,9.48704 3.906,10.38064 C4.4508,10.92544 4.6652,11.67584 4.546,12.38144 C4.5444,12.38464 4.5436,12.38864 4.5436,12.39024 C4.5332,12.43584 4.5244,12.47824 4.5172,12.52464 C4.5148,12.53104 4.5148,12.53824 4.5124,12.54464 C4.43,13.09984 4.6028,13.68544 5.03,14.11264 C5.4716,14.55504 6.0844,14.72384 6.6564,14.61744 C6.6804,14.61424 6.7044,14.61104 6.7268,14.60384 C7.002,14.55264 7.2852,14.55264 7.5604,14.60384 C7.5836,14.61104 7.6068,14.61584 7.6316,14.61744 C8.2036,14.72384 8.8156,14.55504 9.258,14.11264 C9.6996,13.67024 9.8684,13.05824 9.7628,12.48624 C9.7628,12.48224 9.7612,12.47824 9.7604,12.47504 C9.7588,12.45584 9.754,12.43744 9.75,12.41904 C9.7484,12.41744 9.75,12.41664 9.7484,12.41584 C9.6164,11.70144 9.8268,10.93504 10.3812,10.38064 C11.2756,9.48704 12.7236,9.48704 13.6172,10.38064 C14.162,10.92544 14.3756,11.67584 14.2572,12.38144 C14.2564,12.38464 14.2548,12.38864 14.2548,12.39024 C14.2444,12.43584 14.2356,12.47824 14.2284,12.52464 C14.226,12.53104 14.226,12.53824 14.2244,12.54464 C14.1412,13.09984 14.314,13.68544 14.7412,14.11264 C15.1836,14.55504 15.7948,14.72384 16.3676,14.61744 C16.3908,14.61424 16.4156,14.61104 16.438,14.60384 C16.714,14.55264 16.9964,14.55264 17.2716,14.60384 C17.2948,14.61104 17.3188,14.61424 17.342,14.61744 C17.9148,14.72384 18.526,14.55504 18.9692,14.11264 C19.41,13.67024 19.5796,13.05824 19.4732,12.48624 C19.47,12.46224 19.4668,12.43904 19.4596,12.41584 C19.3276,11.70144 19.5388,10.93424 20.0924,10.38064 C20.9868,9.48704 22.4348,9.48704 23.3284,10.38064 C24.2228,11.27504 24.2236,12.72464 23.3292,13.61824 C22.7772,14.17104 22.0116,14.38064 21.2972,14.25104 C21.2732,14.24544 21.2492,14.23984 21.2228,14.23584 C20.6508,14.12944 20.0388,14.29824 19.5964,14.74064 C19.1548,15.18224 18.986,15.79424 19.0916,16.36704 C19.0956,16.39264 19.1012,16.41744 19.106,16.44224 C19.2372,17.15584 19.0268,17.92144 18.474,18.47424" id="Fill-2" fill="#00ADEE"></path>
                    <path d="M13.61816,23.32896 C12.72456,24.22256 11.27496,24.22256 10.38056,23.32896 C9.48696,22.43456 9.48696,20.98496 10.38056,20.09136 C11.27496,19.19776 12.72456,19.19776 13.61816,20.09136 C14.51256,20.98496 14.51256,22.43456 13.61816,23.32896" id="Fill-3" fill="#8BC53F"></path>
                    <path d="M46.2856,15.7443255 L51.6728,10.3571255 L51.6728,17.8275255 C51.6728,18.2579255 52.0216,18.6059255 52.452,18.6059255 C52.8808,18.6059255 53.2296,18.2579255 53.2296,17.8275255 L53.2296,8.48992549 C53.2296,8.48832549 53.2288,8.48672549 53.2288,8.48512549 C53.2304,8.28432549 53.156,8.08272549 53.0032,7.92912549 C52.7008,7.62832549 52.2104,7.62832549 51.9072,7.92912549 L45.1888,14.6483255 L42.1352,11.5947255 L48.8136,4.91712549 C48.9736,4.77472549 49.08,4.57232549 49.08,4.34032549 C49.08,4.33792549 49.0792,4.33632549 49.0792,4.33472549 C49.0808,4.13392549 49.0064,3.93312549 48.8536,3.78112549 C48.6912,3.61872549 48.4744,3.55072549 48.2616,3.56272549 L37.9272,3.56272549 C37.4984,3.56272549 37.1496,3.91072549 37.1496,4.34032549 C37.1496,4.77072549 37.4984,5.11872549 37.9272,5.11872549 L46.42,5.11872549 L41.0392,10.4987255 L34.3216,3.78112549 C34.0192,3.47872549 33.528,3.47872549 33.2256,3.78112549 C33.072,3.93392549 32.9984,4.13552549 33.0008,4.33632549 C33.0008,4.33792549 33,4.33872549 33,4.34032549 L33,20.4211255 C33,20.8499255 33.348,21.1995255 33.7776,21.1995255 C34.2064,21.1995255 34.5552,20.8499255 34.5552,20.4211255 L34.5552,6.20672549 L39.944,11.5947255 L35.8112,15.7267255 C35.5088,16.0291255 35.5088,16.5211255 35.8112,16.8227255 C36.1136,17.1251255 36.604,17.1251255 36.9072,16.8227255 L41.0392,12.6907255 L44.0928,15.7443255 L39.9616,19.8763255 C39.6584,20.1795255 39.6584,20.6707255 39.9616,20.9731255 C40.264,21.2747255 40.7544,21.2747255 41.0568,20.9731255 L45.1896,16.8403255 L49.3224,20.9731255 C49.6248,21.2747255 50.1152,21.2747255 50.4184,20.9731255 C50.7208,20.6707255 50.7208,20.1795255 50.4184,19.8763255 L46.2856,15.7443255 Z M87.49048,8.74352549 C87.50328,8.74352549 87.51448,8.73792549 87.52728,8.73632549 C87.85848,8.70912549 88.12008,8.48032549 88.20328,8.16912549 L89.49448,4.60352549 C89.51128,4.55792549 89.50728,4.51072549 89.51528,4.46432549 C89.52248,4.42272549 89.54008,4.38432549 89.54008,4.34032549 C89.54008,4.33392549 89.53688,4.32832549 89.53688,4.32192549 C89.53608,4.25552549 89.51608,4.19392549 89.49848,4.13152549 C89.48888,4.09712549 89.48728,4.06032549 89.47208,4.02752549 C89.44888,3.97392549 89.40968,3.92992549 89.37448,3.88272549 C89.35048,3.84992549 89.33368,3.81312549 89.30328,3.78432549 C89.27208,3.75392549 89.23128,3.73552549 89.19448,3.71072549 C89.14648,3.67792549 89.10248,3.64192549 89.04728,3.62032549 C89.04248,3.61872549 89.03928,3.61472549 89.03528,3.61232549 C89.00248,3.60112549 88.96888,3.60512549 88.93608,3.59792549 C88.87848,3.58432549 88.82408,3.56272549 88.76248,3.56272549 L81.57368,3.56272549 L81.73048,3.00112549 C81.84808,2.57632549 81.58728,2.14112549 81.14808,2.02752549 C80.70888,1.91312549 80.25768,2.16592549 80.14008,2.58912549 L79.7144,4.12512549 C79.704,4.16032549 79.712,4.19392549 79.7072,4.22912549 C79.7024,4.26752549 79.6848,4.30112549 79.6848,4.34032549 C79.6848,4.36032549 79.6952,4.37712549 79.6968,4.39632549 C79.7,4.43712549 79.7096,4.47472549 79.72,4.51312549 C79.736,4.58192549 79.756,4.64592549 79.7888,4.70672549 C79.7992,4.72432549 79.8104,4.73952549 79.8216,4.75632549 C79.8688,4.82832549 79.924,4.89072549 79.99128,4.94432549 C80.00328,4.95312549 80.01688,4.96112549 80.02968,4.96992549 C80.09848,5.01712549 80.17048,5.05312549 80.25368,5.07632549 C80.26888,5.08112549 80.28008,5.09312549 80.29608,5.09712549 C80.32408,5.10432549 80.35128,5.09792549 80.37928,5.10192549 C80.40808,5.10512549 80.43368,5.11872549 80.46328,5.11872549 L87.67048,5.11872549 L86.91928,7.19312549 L83.05688,7.19312549 C83.01048,7.19312549 82.97048,7.21152549 82.92808,7.21872549 C82.57448,7.16432549 82.22168,7.35312549 82.09528,7.70832549 L77.6552,20.1515255 C77.5112,20.5571255 77.7152,21.0027255 78.1112,21.1499255 C78.5072,21.2979255 78.9456,21.0891255 79.0904,20.6851255 L83.34888,8.74912549 L87.46568,8.74912549 C87.47368,8.74912549 87.48168,8.74432549 87.49048,8.74352549 L87.49048,8.74352549 Z M86.12248,10.8259255 C85.97528,10.4203255 85.52888,10.2107255 85.12488,10.3579255 C84.72168,10.5059255 84.51288,10.9555255 84.66008,11.3611255 L88.03128,20.6787255 C88.17768,21.0843255 88.62408,21.2939255 89.02808,21.1467255 C89.43208,20.9979255 89.64008,20.5491255 89.49368,20.1435255 L86.12248,10.8259255 Z M97.06168,16.5299255 C96.63288,16.5299255 96.28408,16.1827255 96.28408,15.7531255 C96.28408,15.3227255 96.63288,14.9739255 97.06168,14.9739255 C97.49208,14.9739255 97.84008,15.3227255 97.84008,15.7531255 C97.84008,16.1827255 97.49208,16.5299255 97.06168,16.5299255 L97.06168,16.5299255 Z M107.43608,14.9739255 L105.10248,14.9739255 L105.10248,6.67472549 L107.43608,6.67472549 C107.86728,6.67472549 108.21448,6.32672549 108.21448,5.89552549 C108.21448,5.46672549 107.86728,5.11872549 107.43608,5.11872549 L105.10248,5.11872549 L105.10248,2.78432549 C105.10248,2.35472549 104.75368,2.00672549 104.32408,2.00672549 C103.89448,2.00672549 103.54568,2.35472549 103.54568,2.78432549 L103.54568,5.11872549 L96.54248,5.11872549 L97.27768,3.04032549 C97.41848,2.64192549 97.21848,2.20192549 96.83208,2.05712549 C96.44488,1.91152549 96.01768,2.11792549 95.87608,2.51552549 L94.77128,5.64032549 C94.75528,5.68752549 94.75848,5.73632549 94.75048,5.78432549 C94.74488,5.82272549 94.72808,5.85632549 94.72808,5.89552549 C94.72808,5.90192549 94.73208,5.90752549 94.73208,5.91392549 C94.73368,6.00672549 94.75288,6.09472549 94.78568,6.17952549 C94.78808,6.18672549 94.78808,6.19472549 94.79048,6.20112549 C94.86888,6.39072549 95.01528,6.54912549 95.21768,6.62512549 C95.27368,6.64592549 95.33128,6.64432549 95.38808,6.65072549 C95.42808,6.65712549 95.46408,6.67472549 95.50568,6.67472549 L103.54568,6.67472549 L103.54568,14.9739255 L99.25288,14.9739255 C98.93208,14.0691255 98.07688,13.4187255 97.06168,13.4187255 C95.77208,13.4187255 94.72808,14.4619255 94.72808,15.7531255 C94.72808,17.0419255 95.77208,18.0867255 97.06168,18.0867255 C98.07688,18.0867255 98.93288,17.4347255 99.25368,16.5299255 L103.54568,16.5299255 L103.54568,20.4211255 C103.54568,20.8499255 103.89448,21.1995255 104.32408,21.1995255 C104.75368,21.1995255 105.10248,20.8499255 105.10248,20.4211255 L105.10248,16.5299255 L107.43608,16.5299255 C107.86728,16.5299255 108.21448,16.1827255 108.21448,15.7531255 C108.21448,15.3227255 107.86728,14.9739255 107.43608,14.9739255 L107.43608,14.9739255 Z M92.91208,9.26832549 L90.88328,9.26832549 L93.12728,3.04352549 C93.27128,2.64192549 93.06728,2.19872549 92.66888,2.05232549 C92.27128,1.90512549 91.83208,2.11312549 91.68728,2.51392549 L89.06728,9.78672549 C89.04968,9.83312549 89.05288,9.88112549 89.04488,9.92832549 C89.03848,9.96832549 89.02168,10.0043255 89.02168,10.0459255 C89.02168,10.0523255 89.02488,10.0571255 89.02568,10.0635255 C89.02648,10.1459255 89.04648,10.2235255 89.07288,10.3003255 C89.07848,10.3179255 89.07848,10.3371255 89.08648,10.3547255 C89.12488,10.4443255 89.17928,10.5267255 89.24968,10.5963255 C89.30568,10.6539255 89.37608,10.6947255 89.45048,10.7323255 C89.46888,10.7419255 89.48408,10.7571255 89.50328,10.7643255 C89.51128,10.7675255 89.51608,10.7747255 89.52488,10.7779255 C89.58328,10.7995255 89.64328,10.7987255 89.70328,10.8051255 C89.73608,10.8099255 89.76568,10.8243255 89.80008,10.8243255 L92.13528,10.8243255 L92.13528,20.4211255 C92.13528,20.8499255 92.48168,21.1995255 92.91208,21.1995255 C93.34248,21.1995255 93.69048,20.8499255 93.69048,20.4211255 L93.69048,10.0459255 C93.69048,9.61632549 93.34248,9.26832549 92.91208,9.26832549 L92.91208,9.26832549 Z M70.6064,19.6419255 L68.272,19.6419255 L68.272,11.0835255 C68.272,10.6547255 67.924,10.3051255 67.4952,10.3051255 L64.6416,10.3051255 L64.6416,5.11872549 L68.5328,5.11872549 C68.9624,5.11872549 69.3096,4.77072549 69.3096,4.34032549 C69.3096,3.91072549 68.9624,3.56272549 68.5328,3.56272549 L64.6416,3.56272549 L64.6416,2.78432549 C64.6416,2.35472549 64.2936,2.00672549 63.864,2.00672549 C63.4344,2.00672549 63.0856,2.35472549 63.0856,2.78432549 L63.0856,3.56272549 L56.6016,3.56272549 C56.172,3.56272549 55.8232,3.91072549 55.8232,4.34032549 C55.8232,4.77072549 56.172,5.11872549 56.6016,5.11872549 L63.0856,5.11872549 L63.0856,10.7571255 L54.2008,19.6419255 L52.452,19.6419255 C52.0216,19.6419255 51.6728,19.9907255 51.6728,20.4211255 C51.6728,20.8499255 52.0216,21.1995255 52.452,21.1995255 L64.9016,21.1995255 C65.3304,21.1995255 65.6784,20.8499255 65.6784,20.4211255 C65.6784,19.9907255 65.3304,19.6419255 64.9016,19.6419255 L56.3936,19.6419255 L64.1736,11.8619255 L66.716,11.8619255 L66.716,20.4211255 C66.716,20.8499255 67.0648,21.1995255 67.4952,21.1995255 L70.6064,21.1995255 C71.0368,21.1995255 71.3848,20.8499255 71.3848,20.4211255 C71.3848,19.9907255 71.0368,19.6419255 70.6064,19.6419255 L70.6064,19.6419255 Z M78.6232,15.0331255 C78.512,14.6187255 78.0864,14.3715255 77.6712,14.4843255 L76.0536,14.9187255 L76.0536,11.8619255 L77.8688,11.8619255 C78.2992,11.8619255 78.6464,11.5123255 78.6464,11.0835255 C78.6464,10.6547255 78.2992,10.3051255 77.8688,10.3051255 L76.0536,10.3051255 L76.0536,7.97152549 C76.0536,7.54112549 75.7048,7.19312549 75.2752,7.19312549 C74.8456,7.19312549 74.4976,7.54112549 74.4976,7.97152549 L74.4976,10.3051255 L72.1952,10.3051255 L73.628,5.11872549 L77.8688,5.11872549 C78.2992,5.11872549 78.6464,4.77072549 78.6464,4.34032549 C78.6464,3.91072549 78.2992,3.56272549 77.8688,3.56272549 L74.0576,3.56272549 L74.216,2.98832549 C74.3312,2.57312549 74.076,2.14432549 73.6464,2.03152549 C73.2176,1.92112549 72.776,2.16752549 72.6616,2.58432549 L72.3912,3.56272549 L71.1264,3.56272549 C70.696,3.56272549 70.3472,3.91072549 70.3472,4.34032549 C70.3472,4.77072549 70.696,5.11872549 71.1264,5.11872549 L71.9608,5.11872549 L70.3688,10.8787255 C70.356,10.9275255 70.364,10.9747255 70.36,11.0227255 C70.3584,11.0443255 70.3472,11.0619255 70.3472,11.0835255 C70.3472,11.0947255 70.3536,11.1043255 70.3536,11.1147255 C70.3576,11.1851255 70.372,11.2507255 70.3952,11.3163255 C70.4056,11.3523255 70.4152,11.3867255 70.432,11.4203255 C70.4544,11.4651255 70.484,11.5043255 70.516,11.5451255 C70.5496,11.5899255 70.5832,11.6315255 70.6264,11.6675255 C70.6528,11.6907255 70.6824,11.7075255 70.7128,11.7267255 C70.7712,11.7643255 70.8312,11.7947255 70.8992,11.8163255 C70.9136,11.8211255 70.924,11.8315255 70.9392,11.8355255 C70.9664,11.8427255 70.992,11.8363255 71.0184,11.8403255 C71.0552,11.8459255 71.088,11.8619255 71.1264,11.8619255 L74.4976,11.8619255 L74.4976,15.3363255 L70.9208,16.2955255 C70.5064,16.4067255 70.2616,16.8347255 70.3712,17.2499255 C70.4824,17.6627255 70.9088,17.9099255 71.3232,17.7987255 L74.4976,16.9467255 L74.4976,20.4211255 C74.4976,20.8499255 74.8456,21.1995255 75.2752,21.1995255 C75.7048,21.1995255 76.0536,20.8499255 76.0536,20.4211255 L76.0536,16.5291255 L78.0736,15.9875255 C78.488,15.8747255 78.7352,15.4491255 78.6232,15.0331255 L78.6232,15.0331255 Z M52.452,3.56272549 C52.8808,3.56272549 53.2296,3.91072549 53.2296,4.34032549 C53.2296,4.77072549 52.8808,5.11872549 52.452,5.11872549 C52.0216,5.11872549 51.6728,4.77072549 51.6728,4.34032549 C51.6728,3.91072549 52.0216,3.56272549 52.452,3.56272549 L52.452,3.56272549 Z M52.452,6.67472549 C53.7408,6.67472549 54.7856,5.62912549 54.7856,4.34032549 C54.7856,3.05072549 53.7408,2.00672549 52.452,2.00672549 C51.1624,2.00672549 50.1176,3.05072549 50.1176,4.34032549 C50.1176,5.62912549 51.1624,6.67472549 52.452,6.67472549 L52.452,6.67472549 Z" id="Fill-4" fill="#00ADEE"></path>
                </g>
            </g>
        </g>
    </g>
</svg>